<svg version="1.1" id="Camada_1" xmlns="http://www.w3.org/2000/svg" xmlns:xlink="http://www.w3.org/1999/xlink" width="48px" height="48px" viewBox="0 0 48 48" xml:space="preserve"><g><g><g><path class="st0" d="M0,32c0-2.4,3-10.5,9.1-24.3C10,5.9,11.4,5,13.3,5c1.6,0,3.1,0.5,4.5,1.5s2.1,2.3,2.1,3.8c0,0.5-0.2,1.2-0.5,2.2l-4,9.7c4.3,1.8,6.4,5.1,6.4,9.9c0,3-1.1,5.6-3.2,7.8S13.8,43,10.8,43c-2.9,0-5.4-1.1-7.6-3.2S0,35.1,0,32z M26.3,32c0-2.4,3-10.5,9.1-24.3C36.2,5.9,37.6,5,39.6,5c1.6,0,3.1,0.5,4.5,1.5s2.1,2.3,2.1,3.8c0,0.5-0.2,1.2-0.5,2.2l-4,9.7C45.9,24,48,27.3,48,32c0,3-1.1,5.6-3.2,7.8S40.1,43,37,43c-2.9,0-5.4-1.1-7.6-3.2C27.3,37.7,26.3,35.1,26.3,32z"/></g></g></g></svg>